<mxfile host="Electron" agent="Mozilla/5.0 (Windows NT 10.0; Win64; x64) AppleWebKit/537.36 (KHTML, like Gecko) draw.io/28.0.6 Chrome/138.0.7204.100 Electron/37.2.3 Safari/537.36" version="28.0.6">
  <diagram name="PÃ¡gina-1" id="j73hZuTLXUR3FBSmfRx7">
    <mxGraphModel dx="1659" dy="971" grid="1" gridSize="10" guides="1" tooltips="1" connect="1" arrows="1" fold="1" page="1" pageScale="1" pageWidth="850" pageHeight="1100" math="0" shadow="0">
      <root>
        <mxCell id="0" />
        <mxCell id="1" parent="0" />
        <mxCell id="ro1BlrJvYzHVakCWVsMG-19" value="FatoGastoParlamentar" style="swimlane;childLayout=stackLayout;horizontal=1;startSize=50;horizontalStack=0;rounded=1;fontSize=14;fontStyle=0;strokeWidth=2;resizeParent=0;resizeLast=1;shadow=0;dashed=0;align=center;arcSize=4;whiteSpace=wrap;html=1;labelBackgroundColor=none;fillColor=#FAE5C7;strokeColor=#0F8B8D;fontColor=#143642;" vertex="1" parent="1">
          <mxGeometry x="1080" y="490" width="155" height="150" as="geometry" />
        </mxCell>
        <mxCell id="ro1BlrJvYzHVakCWVsMG-20" value="Gasto (PK)&lt;div&gt;Deputado (FK)&lt;br&gt;Fornecedor (FK)&lt;/div&gt;&lt;div&gt;Categoria (FK)&lt;/div&gt;&lt;div&gt;Tempo (FK)&lt;/div&gt;&lt;div&gt;Valor&lt;/div&gt;" style="align=left;strokeColor=none;fillColor=none;spacingLeft=4;spacingRight=4;fontSize=12;verticalAlign=top;resizable=0;rotatable=0;part=1;html=1;whiteSpace=wrap;labelBackgroundColor=none;fontColor=#143642;" vertex="1" parent="ro1BlrJvYzHVakCWVsMG-19">
          <mxGeometry y="50" width="155" height="100" as="geometry" />
        </mxCell>
        <mxCell id="ro1BlrJvYzHVakCWVsMG-21" value="FatoVotacaoPresenca" style="swimlane;childLayout=stackLayout;horizontal=1;startSize=50;horizontalStack=0;rounded=1;fontSize=14;fontStyle=0;strokeWidth=2;resizeParent=0;resizeLast=1;shadow=0;dashed=0;align=center;arcSize=4;whiteSpace=wrap;html=1;labelBackgroundColor=none;fillColor=#FAE5C7;strokeColor=#0F8B8D;fontColor=#143642;" vertex="1" parent="1">
          <mxGeometry x="1080" y="700" width="155" height="150" as="geometry" />
        </mxCell>
        <mxCell id="ro1BlrJvYzHVakCWVsMG-22" value="Registro (PK)&lt;div&gt;Deputado (FK)&lt;/div&gt;&lt;div&gt;Tempo (FK)&lt;/div&gt;&lt;div&gt;Votacao (FK)&lt;/div&gt;&lt;div&gt;Presenca&lt;/div&gt;&lt;div&gt;Voto&lt;/div&gt;" style="align=left;strokeColor=none;fillColor=none;spacingLeft=4;spacingRight=4;fontSize=12;verticalAlign=top;resizable=0;rotatable=0;part=1;html=1;whiteSpace=wrap;labelBackgroundColor=none;fontColor=#143642;" vertex="1" parent="ro1BlrJvYzHVakCWVsMG-21">
          <mxGeometry y="50" width="155" height="100" as="geometry" />
        </mxCell>
        <mxCell id="ro1BlrJvYzHVakCWVsMG-23" value="BridgeDeputadoLegislaturaPartido" style="swimlane;childLayout=stackLayout;horizontal=1;startSize=50;horizontalStack=0;rounded=1;fontSize=14;fontStyle=0;strokeWidth=2;resizeParent=0;resizeLast=1;shadow=0;dashed=0;align=center;arcSize=4;whiteSpace=wrap;html=1;labelBackgroundColor=none;fillColor=#FAE5C7;strokeColor=#0F8B8D;fontColor=#143642;" vertex="1" parent="1">
          <mxGeometry x="1350" y="320" width="230" height="120" as="geometry" />
        </mxCell>
        <mxCell id="ro1BlrJvYzHVakCWVsMG-24" value="Registro (PK)&lt;div&gt;Deputado (FK)&lt;/div&gt;&lt;div&gt;Partido (FK)&lt;/div&gt;&lt;div&gt;Legislatura (FK)&lt;/div&gt;" style="align=left;strokeColor=none;fillColor=none;spacingLeft=4;spacingRight=4;fontSize=12;verticalAlign=top;resizable=0;rotatable=0;part=1;html=1;whiteSpace=wrap;labelBackgroundColor=none;fontColor=#143642;" vertex="1" parent="ro1BlrJvYzHVakCWVsMG-23">
          <mxGeometry y="50" width="230" height="70" as="geometry" />
        </mxCell>
        <mxCell id="ro1BlrJvYzHVakCWVsMG-29" value="DimTempo" style="swimlane;childLayout=stackLayout;horizontal=1;startSize=50;horizontalStack=0;rounded=1;fontSize=14;fontStyle=0;strokeWidth=2;resizeParent=0;resizeLast=1;shadow=0;dashed=0;align=center;arcSize=4;whiteSpace=wrap;html=1;labelBackgroundColor=none;fillColor=#FAE5C7;strokeColor=#0F8B8D;fontColor=#143642;" vertex="1" parent="1">
          <mxGeometry x="1340" y="610" width="155" height="150" as="geometry" />
        </mxCell>
        <mxCell id="ro1BlrJvYzHVakCWVsMG-30" value="Tempo (PK)&lt;div&gt;Dia&lt;/div&gt;&lt;div&gt;Mes&lt;/div&gt;&lt;div&gt;Ano&lt;/div&gt;&lt;div&gt;Trimestre&lt;/div&gt;&lt;div&gt;AnoEleitoral&lt;/div&gt;" style="align=left;strokeColor=none;fillColor=none;spacingLeft=4;spacingRight=4;fontSize=12;verticalAlign=top;resizable=0;rotatable=0;part=1;html=1;whiteSpace=wrap;labelBackgroundColor=none;fontColor=#143642;" vertex="1" parent="ro1BlrJvYzHVakCWVsMG-29">
          <mxGeometry y="50" width="155" height="100" as="geometry" />
        </mxCell>
        <mxCell id="ro1BlrJvYzHVakCWVsMG-31" value="DimFornecedor" style="swimlane;childLayout=stackLayout;horizontal=1;startSize=50;horizontalStack=0;rounded=1;fontSize=14;fontStyle=0;strokeWidth=2;resizeParent=0;resizeLast=1;shadow=0;dashed=0;align=center;arcSize=4;whiteSpace=wrap;html=1;labelBackgroundColor=none;fillColor=#FAE5C7;strokeColor=#0F8B8D;fontColor=#143642;" vertex="1" parent="1">
          <mxGeometry x="1080" y="300" width="155" height="120" as="geometry" />
        </mxCell>
        <mxCell id="ro1BlrJvYzHVakCWVsMG-32" value="Fornecedor (PK)&lt;div&gt;Setor (FK)&lt;br&gt;&lt;div&gt;Nome&lt;/div&gt;&lt;div&gt;CNPJ_CPF&lt;/div&gt;&lt;div&gt;&lt;br&gt;&lt;/div&gt;&lt;/div&gt;" style="align=left;strokeColor=none;fillColor=none;spacingLeft=4;spacingRight=4;fontSize=12;verticalAlign=top;resizable=0;rotatable=0;part=1;html=1;whiteSpace=wrap;labelBackgroundColor=none;fontColor=#143642;" vertex="1" parent="ro1BlrJvYzHVakCWVsMG-31">
          <mxGeometry y="50" width="155" height="70" as="geometry" />
        </mxCell>
        <mxCell id="ro1BlrJvYzHVakCWVsMG-37" value="DimSetor" style="swimlane;childLayout=stackLayout;horizontal=1;startSize=50;horizontalStack=0;rounded=1;fontSize=14;fontStyle=0;strokeWidth=2;resizeParent=0;resizeLast=1;shadow=0;dashed=0;align=center;arcSize=4;whiteSpace=wrap;html=1;labelBackgroundColor=none;fillColor=#FAE5C7;strokeColor=#0F8B8D;fontColor=#143642;" vertex="1" parent="1">
          <mxGeometry x="840" y="300" width="155" height="110" as="geometry" />
        </mxCell>
        <mxCell id="ro1BlrJvYzHVakCWVsMG-38" value="&lt;div&gt;&lt;div&gt;Setor (PK)&lt;/div&gt;&lt;/div&gt;&lt;div&gt;DescricaoCNAE&lt;/div&gt;&lt;div&gt;SubSetor&lt;/div&gt;&lt;div&gt;&lt;br&gt;&lt;/div&gt;" style="align=left;strokeColor=none;fillColor=none;spacingLeft=4;spacingRight=4;fontSize=12;verticalAlign=top;resizable=0;rotatable=0;part=1;html=1;whiteSpace=wrap;labelBackgroundColor=none;fontColor=#143642;" vertex="1" parent="ro1BlrJvYzHVakCWVsMG-37">
          <mxGeometry y="50" width="155" height="60" as="geometry" />
        </mxCell>
        <mxCell id="ro1BlrJvYzHVakCWVsMG-39" value="DimCategoriaDespesa" style="swimlane;childLayout=stackLayout;horizontal=1;startSize=50;horizontalStack=0;rounded=1;fontSize=14;fontStyle=0;strokeWidth=2;resizeParent=0;resizeLast=1;shadow=0;dashed=0;align=center;arcSize=4;whiteSpace=wrap;html=1;labelBackgroundColor=none;fillColor=#FAE5C7;strokeColor=#0F8B8D;fontColor=#143642;" vertex="1" parent="1">
          <mxGeometry x="810" y="520" width="155" height="90" as="geometry" />
        </mxCell>
        <mxCell id="ro1BlrJvYzHVakCWVsMG-40" value="&lt;div&gt;&lt;div&gt;Categoria (PK)&lt;/div&gt;&lt;/div&gt;&lt;div&gt;NomeCategoria&lt;/div&gt;" style="align=left;strokeColor=none;fillColor=none;spacingLeft=4;spacingRight=4;fontSize=12;verticalAlign=top;resizable=0;rotatable=0;part=1;html=1;whiteSpace=wrap;labelBackgroundColor=none;fontColor=#143642;" vertex="1" parent="ro1BlrJvYzHVakCWVsMG-39">
          <mxGeometry y="50" width="155" height="40" as="geometry" />
        </mxCell>
        <mxCell id="ro1BlrJvYzHVakCWVsMG-41" value="DimDeputado" style="swimlane;childLayout=stackLayout;horizontal=1;startSize=50;horizontalStack=0;rounded=1;fontSize=14;fontStyle=0;strokeWidth=2;resizeParent=0;resizeLast=1;shadow=0;dashed=0;align=center;arcSize=4;whiteSpace=wrap;html=1;labelBackgroundColor=none;fillColor=#FAE5C7;strokeColor=#0F8B8D;fontColor=#143642;" vertex="1" parent="1">
          <mxGeometry x="1510" y="495" width="155" height="110" as="geometry" />
        </mxCell>
        <mxCell id="ro1BlrJvYzHVakCWVsMG-42" value="Deputado (PK)&lt;div&gt;Nome&lt;/div&gt;&lt;div&gt;UF&lt;/div&gt;" style="align=left;strokeColor=none;fillColor=none;spacingLeft=4;spacingRight=4;fontSize=12;verticalAlign=top;resizable=0;rotatable=0;part=1;html=1;whiteSpace=wrap;labelBackgroundColor=none;fontColor=#143642;" vertex="1" parent="ro1BlrJvYzHVakCWVsMG-41">
          <mxGeometry y="50" width="155" height="60" as="geometry" />
        </mxCell>
        <mxCell id="ro1BlrJvYzHVakCWVsMG-43" value="DimPartido" style="swimlane;childLayout=stackLayout;horizontal=1;startSize=50;horizontalStack=0;rounded=1;fontSize=14;fontStyle=0;strokeWidth=2;resizeParent=0;resizeLast=1;shadow=0;dashed=0;align=center;arcSize=4;whiteSpace=wrap;html=1;labelBackgroundColor=none;fillColor=#FAE5C7;strokeColor=#0F8B8D;fontColor=#143642;" vertex="1" parent="1">
          <mxGeometry x="1560" y="100" width="155" height="110" as="geometry" />
        </mxCell>
        <mxCell id="ro1BlrJvYzHVakCWVsMG-44" value="Partido (PK)&lt;div&gt;Sigla&lt;/div&gt;&lt;div&gt;Nome&lt;/div&gt;" style="align=left;strokeColor=none;fillColor=none;spacingLeft=4;spacingRight=4;fontSize=12;verticalAlign=top;resizable=0;rotatable=0;part=1;html=1;whiteSpace=wrap;labelBackgroundColor=none;fontColor=#143642;" vertex="1" parent="ro1BlrJvYzHVakCWVsMG-43">
          <mxGeometry y="50" width="155" height="60" as="geometry" />
        </mxCell>
        <mxCell id="ro1BlrJvYzHVakCWVsMG-46" value="DimLegislatura" style="swimlane;childLayout=stackLayout;horizontal=1;startSize=50;horizontalStack=0;rounded=1;fontSize=14;fontStyle=0;strokeWidth=2;resizeParent=0;resizeLast=1;shadow=0;dashed=0;align=center;arcSize=4;whiteSpace=wrap;html=1;labelBackgroundColor=none;fillColor=#FAE5C7;strokeColor=#0F8B8D;fontColor=#143642;" vertex="1" parent="1">
          <mxGeometry x="1230" y="100" width="155" height="110" as="geometry" />
        </mxCell>
        <mxCell id="ro1BlrJvYzHVakCWVsMG-47" value="Legislatura (PK)&lt;div&gt;AnoInicio&lt;/div&gt;&lt;div&gt;AnoFim&lt;/div&gt;" style="align=left;strokeColor=none;fillColor=none;spacingLeft=4;spacingRight=4;fontSize=12;verticalAlign=top;resizable=0;rotatable=0;part=1;html=1;whiteSpace=wrap;labelBackgroundColor=none;fontColor=#143642;" vertex="1" parent="ro1BlrJvYzHVakCWVsMG-46">
          <mxGeometry y="50" width="155" height="60" as="geometry" />
        </mxCell>
        <mxCell id="ro1BlrJvYzHVakCWVsMG-48" value="DimVotacao" style="swimlane;childLayout=stackLayout;horizontal=1;startSize=50;horizontalStack=0;rounded=1;fontSize=14;fontStyle=0;strokeWidth=2;resizeParent=0;resizeLast=1;shadow=0;dashed=0;align=center;arcSize=4;whiteSpace=wrap;html=1;labelBackgroundColor=none;fillColor=#FAE5C7;strokeColor=#0F8B8D;fontColor=#143642;" vertex="1" parent="1">
          <mxGeometry x="880" y="660" width="155" height="110" as="geometry" />
        </mxCell>
        <mxCell id="ro1BlrJvYzHVakCWVsMG-49" value="Votacao (PK)&lt;div&gt;DescricaoVotacao&lt;/div&gt;&lt;div&gt;Tema&lt;/div&gt;" style="align=left;strokeColor=none;fillColor=none;spacingLeft=4;spacingRight=4;fontSize=12;verticalAlign=top;resizable=0;rotatable=0;part=1;html=1;whiteSpace=wrap;labelBackgroundColor=none;fontColor=#143642;" vertex="1" parent="ro1BlrJvYzHVakCWVsMG-48">
          <mxGeometry y="50" width="155" height="60" as="geometry" />
        </mxCell>
        <mxCell id="ro1BlrJvYzHVakCWVsMG-52" value="" style="edgeStyle=entityRelationEdgeStyle;fontSize=12;html=1;endArrow=ERoneToMany;rounded=0;exitX=0;exitY=0;exitDx=0;exitDy=0;entryX=0.994;entryY=0.1;entryDx=0;entryDy=0;labelBackgroundColor=none;strokeColor=#A8201A;fontColor=default;entryPerimeter=0;" edge="1" parent="1" source="ro1BlrJvYzHVakCWVsMG-42" target="ro1BlrJvYzHVakCWVsMG-20">
          <mxGeometry width="100" height="100" relative="1" as="geometry">
            <mxPoint x="1320" y="470" as="sourcePoint" />
            <mxPoint x="1420" y="370" as="targetPoint" />
          </mxGeometry>
        </mxCell>
        <mxCell id="ro1BlrJvYzHVakCWVsMG-53" value="" style="fontSize=12;html=1;endArrow=ERoneToMany;rounded=0;horizontal=1;labelPosition=center;verticalLabelPosition=middle;align=center;verticalAlign=middle;entryX=0.5;entryY=0;entryDx=0;entryDy=0;exitX=0.5;exitY=1;exitDx=0;exitDy=0;labelBackgroundColor=none;strokeColor=#A8201A;fontColor=default;" edge="1" parent="1" source="ro1BlrJvYzHVakCWVsMG-32" target="ro1BlrJvYzHVakCWVsMG-19">
          <mxGeometry width="100" height="100" relative="1" as="geometry">
            <mxPoint x="1380" y="270" as="sourcePoint" />
            <mxPoint x="1380" y="440" as="targetPoint" />
            <Array as="points" />
          </mxGeometry>
        </mxCell>
        <mxCell id="ro1BlrJvYzHVakCWVsMG-59" value="" style="edgeStyle=entityRelationEdgeStyle;fontSize=12;html=1;endArrow=ERoneToMany;rounded=0;entryX=0;entryY=0;entryDx=0;entryDy=0;exitX=1;exitY=0;exitDx=0;exitDy=0;labelBackgroundColor=none;strokeColor=#A8201A;fontColor=default;" edge="1" parent="1" source="ro1BlrJvYzHVakCWVsMG-40" target="ro1BlrJvYzHVakCWVsMG-20">
          <mxGeometry width="100" height="100" relative="1" as="geometry">
            <mxPoint x="877.5" y="455" as="sourcePoint" />
            <mxPoint x="1050" y="455" as="targetPoint" />
            <Array as="points">
              <mxPoint x="970" y="390" />
              <mxPoint x="960" y="480" />
              <mxPoint x="950" y="500" />
            </Array>
          </mxGeometry>
        </mxCell>
        <mxCell id="ro1BlrJvYzHVakCWVsMG-63" value="" style="edgeStyle=entityRelationEdgeStyle;fontSize=12;html=1;endArrow=ERoneToMany;rounded=0;entryX=1;entryY=0.147;entryDx=0;entryDy=0;exitX=0;exitY=0;exitDx=0;exitDy=0;entryPerimeter=0;labelBackgroundColor=none;strokeColor=#A8201A;fontColor=default;" edge="1" parent="1" source="ro1BlrJvYzHVakCWVsMG-24" target="ro1BlrJvYzHVakCWVsMG-19">
          <mxGeometry width="100" height="100" relative="1" as="geometry">
            <mxPoint x="1020" y="730" as="sourcePoint" />
            <mxPoint x="1086.96" y="600" as="targetPoint" />
            <Array as="points">
              <mxPoint x="1040" y="789" />
              <mxPoint x="896.96" y="635" />
              <mxPoint x="1026.96" y="675" />
              <mxPoint x="906.96" y="605" />
              <mxPoint x="946.96" y="625" />
              <mxPoint x="1526.96" y="615" />
            </Array>
          </mxGeometry>
        </mxCell>
        <mxCell id="ro1BlrJvYzHVakCWVsMG-67" value="" style="edgeStyle=entityRelationEdgeStyle;fontSize=12;html=1;endArrow=ERoneToMany;rounded=0;entryX=0;entryY=0.75;entryDx=0;entryDy=0;labelBackgroundColor=none;strokeColor=#A8201A;fontColor=default;exitX=0.5;exitY=0;exitDx=0;exitDy=0;" edge="1" parent="1" source="ro1BlrJvYzHVakCWVsMG-48" target="ro1BlrJvYzHVakCWVsMG-19">
          <mxGeometry width="100" height="100" relative="1" as="geometry">
            <mxPoint x="898" y="700" as="sourcePoint" />
            <mxPoint x="1050" y="930" as="targetPoint" />
            <Array as="points">
              <mxPoint x="898" y="670" />
              <mxPoint x="890" y="620" />
            </Array>
          </mxGeometry>
        </mxCell>
        <mxCell id="ro1BlrJvYzHVakCWVsMG-69" value="" style="edgeStyle=entityRelationEdgeStyle;fontSize=12;html=1;endArrow=none;rounded=0;labelBackgroundColor=none;strokeColor=#A8201A;fontColor=default;startArrow=ERoneToMany;startFill=0;endFill=0;entryX=0.5;entryY=0;entryDx=0;entryDy=0;exitX=1;exitY=0.5;exitDx=0;exitDy=0;" edge="1" parent="1" source="ro1BlrJvYzHVakCWVsMG-20" target="ro1BlrJvYzHVakCWVsMG-29">
          <mxGeometry width="100" height="100" relative="1" as="geometry">
            <mxPoint x="1240" y="580" as="sourcePoint" />
            <mxPoint x="1520" y="620" as="targetPoint" />
          </mxGeometry>
        </mxCell>
        <mxCell id="ro1BlrJvYzHVakCWVsMG-70" value="" style="edgeStyle=entityRelationEdgeStyle;fontSize=12;html=1;endArrow=ERoneToMany;rounded=0;strokeColor=#A8201A;fontColor=#143642;fillColor=#FAE5C7;exitX=0.5;exitY=1;exitDx=0;exitDy=0;" edge="1" parent="1" source="ro1BlrJvYzHVakCWVsMG-49">
          <mxGeometry width="100" height="100" relative="1" as="geometry">
            <mxPoint x="980" y="920" as="sourcePoint" />
            <mxPoint x="1080" y="820" as="targetPoint" />
          </mxGeometry>
        </mxCell>
        <mxCell id="ro1BlrJvYzHVakCWVsMG-71" value="" style="edgeStyle=entityRelationEdgeStyle;fontSize=12;html=1;endArrow=none;rounded=0;strokeColor=#A8201A;fontColor=#143642;fillColor=#FAE5C7;startArrow=ERoneToMany;startFill=0;endFill=0;exitX=1;exitY=0;exitDx=0;exitDy=0;entryX=0;entryY=0;entryDx=0;entryDy=0;" edge="1" parent="1" source="ro1BlrJvYzHVakCWVsMG-22" target="ro1BlrJvYzHVakCWVsMG-30">
          <mxGeometry width="100" height="100" relative="1" as="geometry">
            <mxPoint x="1250" y="960" as="sourcePoint" />
            <mxPoint x="1350" y="860" as="targetPoint" />
          </mxGeometry>
        </mxCell>
        <mxCell id="ro1BlrJvYzHVakCWVsMG-72" value="" style="edgeStyle=orthogonalEdgeStyle;fontSize=12;html=1;endArrow=none;rounded=0;strokeColor=#A8201A;fontColor=#143642;fillColor=#FAE5C7;startArrow=ERoneToMany;startFill=0;endFill=0;exitX=1;exitY=0.5;exitDx=0;exitDy=0;entryX=0.5;entryY=1;entryDx=0;entryDy=0;jumpStyle=none;jumpSize=6;" edge="1" parent="1" source="ro1BlrJvYzHVakCWVsMG-22" target="ro1BlrJvYzHVakCWVsMG-42">
          <mxGeometry width="100" height="100" relative="1" as="geometry">
            <mxPoint x="1280" y="839.5" as="sourcePoint" />
            <mxPoint x="1607.5" y="654.5" as="targetPoint" />
          </mxGeometry>
        </mxCell>
        <mxCell id="ro1BlrJvYzHVakCWVsMG-73" value="" style="edgeStyle=orthogonalEdgeStyle;fontSize=12;html=1;endArrow=ERoneToMany;rounded=0;strokeColor=#A8201A;fontColor=#143642;fillColor=#FAE5C7;exitX=1.013;exitY=0.358;exitDx=0;exitDy=0;exitPerimeter=0;entryX=0.75;entryY=0;entryDx=0;entryDy=0;" edge="1" parent="1" source="ro1BlrJvYzHVakCWVsMG-23" target="ro1BlrJvYzHVakCWVsMG-41">
          <mxGeometry width="100" height="100" relative="1" as="geometry">
            <mxPoint x="1690" y="440" as="sourcePoint" />
            <mxPoint x="1690" y="450" as="targetPoint" />
            <Array as="points">
              <mxPoint x="1626" y="363" />
            </Array>
          </mxGeometry>
        </mxCell>
        <mxCell id="ro1BlrJvYzHVakCWVsMG-74" value="" style="edgeStyle=orthogonalEdgeStyle;fontSize=12;html=1;endArrow=none;rounded=0;strokeColor=#A8201A;fontColor=#143642;fillColor=#FAE5C7;exitX=0.683;exitY=-0.025;exitDx=0;exitDy=0;exitPerimeter=0;startArrow=ERoneToMany;startFill=0;endFill=0;" edge="1" parent="1" source="ro1BlrJvYzHVakCWVsMG-23">
          <mxGeometry width="100" height="100" relative="1" as="geometry">
            <mxPoint x="1510" y="260" as="sourcePoint" />
            <mxPoint x="1557" y="149" as="targetPoint" />
            <Array as="points">
              <mxPoint x="1507" y="149" />
            </Array>
          </mxGeometry>
        </mxCell>
        <mxCell id="ro1BlrJvYzHVakCWVsMG-75" value="" style="edgeStyle=orthogonalEdgeStyle;fontSize=12;html=1;endArrow=none;rounded=0;strokeColor=#A8201A;fontColor=#143642;fillColor=#FAE5C7;exitX=0.683;exitY=-0.025;exitDx=0;exitDy=0;exitPerimeter=0;startArrow=ERoneToMany;startFill=0;endFill=0;entryX=1;entryY=0;entryDx=0;entryDy=0;" edge="1" parent="1" target="ro1BlrJvYzHVakCWVsMG-47">
          <mxGeometry width="100" height="100" relative="1" as="geometry">
            <mxPoint x="1430" y="320" as="sourcePoint" />
            <mxPoint x="1480" y="152" as="targetPoint" />
            <Array as="points">
              <mxPoint x="1430" y="152" />
              <mxPoint x="1385" y="152" />
            </Array>
          </mxGeometry>
        </mxCell>
        <mxCell id="ro1BlrJvYzHVakCWVsMG-76" value="" style="fontSize=12;html=1;endArrow=ERoneToMany;rounded=0;entryX=0;entryY=0;entryDx=0;entryDy=0;exitX=1;exitY=0;exitDx=0;exitDy=0;labelBackgroundColor=none;strokeColor=#A8201A;fontColor=default;" edge="1" parent="1" source="ro1BlrJvYzHVakCWVsMG-38" target="ro1BlrJvYzHVakCWVsMG-32">
          <mxGeometry width="100" height="100" relative="1" as="geometry">
            <mxPoint x="1055" y="230" as="sourcePoint" />
            <mxPoint x="1170" y="200" as="targetPoint" />
          </mxGeometry>
        </mxCell>
      </root>
    </mxGraphModel>
  </diagram>
</mxfile>
